<svg width="1440" height="811" viewBox="0 0 1440 811" fill="none" xmlns="http://www.w3.org/2000/svg">
<g clip-path="url(#clip0_110_134)">
<rect width="1440" height="811" fill="white"/>
<path d="M1521.8 166.291C1419.97 267.922 1167.31 303.737 1065.68 201.905C964.051 100.073 1251.77 84.7081 1066.04 -166.497C1102.99 -346.774 1305.46 -226.013 1434.03 -97.1928C1614.74 -143.33 1623.63 64.6593 1521.8 166.291Z" fill="#273E9F"/>
<path d="M1040.11 755.589C1061.87 897.803 941.383 1122.75 799.168 1144.51C656.953 1166.27 814.665 925.141 502.263 926.409C378.712 790.027 485.601 699.788 758.457 635.495C960.353 431.755 1018.35 613.374 1040.11 755.589Z" fill="#5DD0D1"/>
<path d="M692.197 608.672C630.115 665.071 559.967 617.201 555.81 559.914C551.654 502.627 613.253 432.682 655.689 471.714C708.734 520.503 759.108 487.574 763.265 544.861C767.422 602.148 749.484 604.515 692.197 608.672Z" fill="#273E9F"/>
<path d="M1434.83 813.093C1394.73 914.888 1306.73 847.014 1280.68 753.755C1254.63 660.496 1289.06 536.577 1346.15 594.144C1417.52 666.103 1454.96 604.54 1481.01 697.798C1507.06 791.057 1490.15 797.641 1434.83 813.093Z" fill="#FF8A30"/>
</g>
<defs>
<clipPath id="clip0_110_134">
<rect width="1440" height="811" fill="white"/>
</clipPath>
</defs>
</svg>
