<svg width="1317" height="811" viewBox="0 0 1317 811" fill="none" xmlns="http://www.w3.org/2000/svg">
<g clip-path="url(#clip0_110_135)">
<rect width="1317" height="811" fill="white"/>
<path d="M1377.8 169.291C1275.97 270.922 1023.31 306.737 921.683 204.905C820.051 103.073 1107.77 87.7081 922.045 -163.497C958.992 -343.774 1161.46 -223.013 1290.03 -94.1928C1470.74 -140.33 1479.63 67.6593 1377.8 169.291Z" fill="#273E9F"/>
<path d="M896.113 758.589C917.875 900.803 797.383 1125.75 655.168 1147.51C512.953 1169.27 670.665 928.141 358.263 929.409C234.712 793.027 341.601 702.788 614.457 638.495C816.353 434.755 874.352 616.374 896.113 758.589Z" fill="#5DD0D1"/>
<path d="M548.197 611.672C486.115 668.071 415.967 620.201 411.81 562.914C407.654 505.627 469.253 435.682 511.689 474.714C564.734 523.503 615.108 490.574 619.265 547.861C623.422 605.148 605.484 607.515 548.197 611.672Z" fill="#273E9F"/>
<path d="M1290.83 816.093C1250.73 917.888 1162.73 850.014 1136.68 756.755C1110.63 663.496 1145.06 539.577 1202.15 597.144C1273.52 669.103 1310.96 607.54 1337.01 700.798C1363.06 794.057 1346.15 800.641 1290.83 816.093Z" fill="#FF8A30"/>
</g>
<defs>
<clipPath id="clip0_110_135">
<rect width="1317" height="811" fill="white"/>
</clipPath>
</defs>
</svg>
