<svg width="1243" height="606" viewBox="0 0 1243 606" fill="none" xmlns="http://www.w3.org/2000/svg">
<g clip-path="url(#clip0_110_139)">
<rect width="1243" height="606" fill="white"/>
<path d="M1398.8 140.291C1296.97 241.922 1044.31 277.737 942.683 175.905C841.051 74.0733 1128.77 58.7081 943.045 -192.497C979.992 -372.774 1182.46 -252.013 1311.03 -123.193C1491.74 -169.33 1500.63 38.6593 1398.8 140.291Z" fill="#273E9F"/>
<path d="M890.113 638.589C911.875 780.803 791.383 1005.75 649.168 1027.51C506.953 1049.27 664.665 808.141 352.263 809.409C228.712 673.027 335.601 582.788 608.457 518.495C810.353 314.755 868.352 496.374 890.113 638.589Z" fill="#5DD0D1"/>
<path d="M542.197 491.672C480.115 548.071 409.967 500.201 405.81 442.914C401.654 385.627 463.253 315.682 505.689 354.714C558.734 403.503 609.108 370.574 613.265 427.861C617.422 485.148 599.484 487.515 542.197 491.672Z" fill="#273E9F"/>
<path d="M1284.83 696.093C1244.73 797.888 1156.73 730.014 1130.68 636.755C1104.63 543.496 1139.06 419.577 1196.15 477.144C1267.52 549.103 1304.96 487.54 1331.01 580.798C1357.06 674.057 1340.15 680.641 1284.83 696.093Z" fill="#FF8A30"/>
</g>
<defs>
<clipPath id="clip0_110_139">
<rect width="1243" height="606" fill="white"/>
</clipPath>
</defs>
</svg>
