<svg width="1440" height="1024" viewBox="0 0 1440 1024" fill="none" xmlns="http://www.w3.org/2000/svg">
<g clip-path="url(#clip0_109_74)">
<rect width="1440" height="1024" fill="white"/>
<path d="M1509.8 258.291C1407.97 359.922 1155.31 395.737 1053.68 293.905C952.051 192.073 1239.77 176.708 1054.04 -74.4974C1090.99 -254.774 1293.46 -134.013 1422.03 -5.19278C1602.74 -51.33 1611.63 156.659 1509.8 258.291Z" fill="#273E9F"/>
<path d="M1048.11 990.589C1069.87 1132.8 949.383 1357.75 807.168 1379.51C664.953 1401.27 822.665 1160.14 510.263 1161.41C386.712 1025.03 493.601 934.788 766.457 870.495C968.353 666.755 1026.35 848.374 1048.11 990.589Z" fill="#5DD0D1"/>
<path d="M700.197 843.672C638.115 900.071 567.967 852.201 563.81 794.914C559.654 737.627 621.253 667.682 663.689 706.714C716.734 755.503 767.108 722.574 771.265 779.861C775.422 837.148 757.484 839.515 700.197 843.672Z" fill="#273E9F"/>
<path d="M1442.83 1048.09C1402.73 1149.89 1314.73 1082.01 1288.68 988.755C1262.63 895.496 1297.06 771.577 1354.15 829.144C1425.52 901.103 1462.96 839.54 1489.01 932.798C1515.06 1026.06 1498.15 1032.64 1442.83 1048.09Z" fill="#FF8A30"/>
</g>
<defs>
<clipPath id="clip0_109_74">
<rect width="1440" height="1024" fill="white"/>
</clipPath>
</defs>
</svg>
